<?xml version="1.0" encoding="UTF-8"?>
<!DOCTYPE svg PUBLIC '-//W3C//DTD SVG 1.0//EN'
    'http://www.w3.org/TR/2001/REC-SVG-20010904/DTD/svg10.dtd' >

<svg style="stroke-dasharray:none; shape-rendering:auto; font-family:'Dialog'; text-rendering:auto; fill-opacity:1; color-interpolation:auto; color-rendering:auto; font-size:12px; fill:black; stroke:black; image-rendering:auto; stroke-miterlimit:10; stroke-linecap:square; stroke-linejoin:miter; font-style:normal; stroke-width:1; stroke-dashoffset:0; font-weight:normal; stroke-opacity:1;"
     xmlns="http://www.w3.org/2000/svg" contentScriptType="text/ecmascript"
     preserveAspectRatio="xMidYMid meet"
     xmlns:xlink="http://www.w3.org/1999/xlink" zoomAndPan="magnify"
     version="1.0" contentStyleType="text/css">
    <!--Generated by the Batik Graphics2D SVG Generator-->
    <defs id="genericDefs"/>
    <g>
        <defs id="defs1">
            <clipPath clipPathUnits="userSpaceOnUse" id="clipPath1">
                <path d="M0 0 L490 0 L490 490 L0 490 L0 0 Z"/>
            </clipPath>
            <clipPath clipPathUnits="userSpaceOnUse" id="clipPath2">
                <path d="M15 0.0041 L15 489 L481.9788 489 L481.9788 0.0041 Z"/>
            </clipPath>
            <clipPath clipPathUnits="userSpaceOnUse" id="clipPath3">
                <path d="M354 74 L354 89 L371 89 L371 74 Z"/>
            </clipPath>
            <clipPath clipPathUnits="userSpaceOnUse" id="clipPath4">
                <path d="M6 5 L496 5 L496 495 L6 495 L6 5 Z"/>
            </clipPath>
            <clipPath clipPathUnits="userSpaceOnUse" id="clipPath5">
                <path d="M10 42 L10 58 L19 58 L19 42 Z"/>
            </clipPath>
            <clipPath clipPathUnits="userSpaceOnUse" id="clipPath6">
                <path d="M62 52 L62 68 L71 68 L71 52 Z"/>
            </clipPath>
            <clipPath clipPathUnits="userSpaceOnUse" id="clipPath7">
                <path d="M129 42 L129 58 L138 58 L138 42 Z"/>
            </clipPath>
            <clipPath clipPathUnits="userSpaceOnUse" id="clipPath8">
                <path d="M182 52 L182 68 L191 68 L191 52 Z"/>
            </clipPath>
            <clipPath clipPathUnits="userSpaceOnUse" id="clipPath9">
                <path d="M212 441 L212 457 L221 457 L221 441 Z"/>
            </clipPath>
            <clipPath clipPathUnits="userSpaceOnUse" id="clipPath10">
                <path d="M212 389 L212 405 L221 405 L221 389 Z"/>
            </clipPath>
            <clipPath clipPathUnits="userSpaceOnUse" id="clipPath11">
                <path d="M212 337 L212 353 L221 353 L221 337 Z"/>
            </clipPath>
            <clipPath clipPathUnits="userSpaceOnUse" id="clipPath12">
                <path d="M212 285 L212 301 L221 301 L221 285 Z"/>
            </clipPath>
            <clipPath clipPathUnits="userSpaceOnUse" id="clipPath13">
                <path d="M219 233 L219 249 L228 249 L228 233 Z"/>
            </clipPath>
            <clipPath clipPathUnits="userSpaceOnUse" id="clipPath14">
                <path d="M219 181 L219 197 L228 197 L228 181 Z"/>
            </clipPath>
            <clipPath clipPathUnits="userSpaceOnUse" id="clipPath15">
                <path d="M219 129 L219 145 L228 145 L228 129 Z"/>
            </clipPath>
            <clipPath clipPathUnits="userSpaceOnUse" id="clipPath16">
                <path d="M219 77 L219 93 L228 93 L228 77 Z"/>
            </clipPath>
        </defs>
        <g transform="translate(6,5)"
           style="stroke-linecap:butt; fill:rgb(120,0,14); text-rendering:optimizeLegibility; image-rendering:optimizeQuality; color-rendering:optimizeQuality; font-family:'Times New Roman'; stroke-linejoin:round; stroke:rgb(120,0,14); color-interpolation:linearRGB; stroke-width:1.5;">
            <path d="M18 27.7612 L20.4184 28.8263 L22.5226 29.731 L24.889 30.7201 L27.2711 31.6817 L29.6419 32.601 L31.8399 33.4168 L34.1159 34.2216 L36.4696 35.0086 L38.8159 35.7444 L41.2292 36.4482 L43.3549 37.0218 L45.748 37.6139 L48.1508 38.1498 L50.4664 38.6095 L52.5692 38.9779 L55.0696 39.3545 L57.1878 39.6212 L59.6517 39.8709 L61.8328 40.0378 L64.2257 40.1629 L66.5043 40.2265 L68.8818 40.236 L71.0651 40.1948 L73.4201 40.0983 L75.8662 39.9426 L77.9956 39.7628 L80.2954 39.5243 L82.6713 39.2319 L84.9957 38.9032 L87.2446 38.5474 L89.7417 38.112 L91.9854 37.6873 L94.3811 37.2022 L96.5519 36.7371 L98.9252 36.204 L101.1582 35.6819 L103.4925 35.1181 L105.7746 34.5522 L108.1637 33.9476 L110.4648 33.3568 L112.8179 32.7474 L115.1516 32.1411 L117.296 31.5848 L119.7537 30.9517 L121.9519 30.3922 L124.2957 29.8054 L126.5389 29.2558 L129.0298 28.6623 L131.1867 28.1649 L133.6348 27.6214 L135.866 27.1477 L138.3066 26.6552 L140.4124 26.2536 L142.8106 25.8239 L145.1272 25.4384 L147.4423 25.0836 L149.7489 24.7611 L151.9648 24.4815 L154.3602 24.213 L156.6432 23.9903 L159.046 23.7911 L161.2211 23.6421 L163.625 23.5116 L165.9275 23.42 L168.2243 23.3607 L170.6235 23.3322 L172.8331 23.3351 L175.0961 23.3662 L177.5948 23.4322 L179.8571 23.519 L182.1707 23.6328 L184.5236 23.7728 L186.6864 23.9213 L188.9918 24.0986 L191.2797 24.292 L193.7271 24.5156 L195.8867 24.7251 L198.3785 24.9785 L200.6272 25.2153 L202.8521 25.4549 L205.2447 25.7157 L207.6469 25.9781 L209.8325 26.2149 L212.1536 26.4615 L214.4187 26.6949 L216.8741 26.937 L218.9988 27.1348 L221.439 27.3459 L223.7329 27.5262 L226.0047 27.6848 L228.2782 27.8213 L230.5972 27.9354 L233.0551 28.0259 L235.3089 28.0792 L237.5336 28.102 L239.9118 28.0915 L242.2849 28.0432 L244.4148 27.966 L246.9378 27.8315 L249.049 27.6817 L251.5183 27.462 L253.8749 27.2064 L255.9792 26.9394 L258.3456 26.5947 L260.7277 26.1996 L263.0985 25.7581 L265.2965 25.3057 L267.5724 24.7937 L269.9262 24.2179 L272.2724 23.5978 L274.6858 22.913 L276.8115 22.2714 L279.2045 21.5079 L281.6074 20.6993 L283.923 19.8828 L286.0258 19.1118 L288.5262 18.1621 L290.6443 17.3328 L293.1083 16.3437 L295.2893 15.4506 L297.6823 14.457 L299.9608 13.5032 L302.3383 12.5067 L304.5216 11.5967 L306.8766 10.6283 L309.3228 9.6461 L311.4522 8.819 L313.752 7.9642 L316.1279 7.134 L318.4522 6.3858 L320.7012 5.7341 L323.1982 5.1088 L325.442 4.6497 L327.8376 4.2832 L330.0085 4.0764 L332.3817 4.0041 L334.6148 4.1003 L336.949 4.3903 L339.2311 4.8811 L341.6203 5.6372 L343.9213 6.6227 L346.2745 7.9159 L348.6082 9.5088 L350.7526 11.2674 L353.2103 13.6581 L355.4085 16.1609 L357.7523 19.2361 L359.9955 22.5989 L362.4864 26.8452 L364.6433 30.984 L367.0914 36.2314 L369.3226 41.5496 L371.7632 47.9817 L373.8689 54.0709 L376.2672 61.6394 L378.5838 69.6144 L380.8989 78.2579 L383.2054 87.558 L385.4213 97.1542 L387.8168 108.27 L390.0998 119.5896 L392.5026 132.2713 L394.6776 144.4288 L397.0815 158.6054 L399.384 172.8977 L401.6809 187.8279 L404.08 204.1062 L406.2897 219.6779 L408.5527 236.1524 L411.0513 254.8908 L413.3136 272.2763 L415.6273 290.3781 L417.9802 309.0139 L420.1429 326.2376 L422.4484 344.5668 L424.7363 362.5774 L427.1836 381.4547 L429.3433 397.6002 L431.8351 415.3922 L434.0838 430.4422 L436.3087 444.1496 L438.7012 457.2826 L441.1034 468.453 L443.2891 476.5424 L445.6101 482.6132 L446.7427 484.5175 L447.8753 485.6628 L448.1822 485.836 L448.4891 485.9487 L448.7961 486 L449.103 485.9888 L449.4099 485.914 L449.7169 485.7747 L450.0238 485.5696 L450.3307 485.2979 L451.393 483.8268 L452.4553 481.4975 L454.8955 472.6409 L457.1895 459.4288 L459.4612 441.1559 L461.7348 417.1663 L464.0537 386.2463 L466.5117 345.6788 L467.6386 324.1974 L468.7654 300.7996 L469.8778 275.7492 L470.9902 248.6835 L472.1793 217.4375 L473.3684 183.7109 L474.5549 147.4926 L475.7414 108.6188 L476.8601 69.4513 L477.9788 27.7613"
                  style="fill:none; clip-path:url(#clipPath2);"/>
        </g>
        <g transform="translate(6,5)"
           style="stroke-linecap:butt; text-rendering:optimizeLegibility; color-rendering:optimizeQuality; image-rendering:optimizeQuality; font-family:'Times New Roman'; stroke-linejoin:round; color-interpolation:linearRGB;">
            <path d="M18 27.7612 L477.9788 27.7612"
                  style="fill:none; clip-path:url(#clipPath1);"/>
        </g>
        <g transform="translate(6,5)"
           style="stroke-linecap:butt; text-rendering:optimizeLegibility; color-rendering:optimizeQuality; image-rendering:optimizeQuality; font-family:'Times New Roman'; stroke-linejoin:round; color-interpolation:linearRGB;">
            <path d="M362.25 80.25 Q362.5625 80.5781 362.7188 80.9219 Q362.8438 81.1406 363.0938 82.1094 L363.6562 81.2812 Q363.875 80.9688 364.1875 80.7031 Q364.5156 80.4219 364.75 80.3125 Q364.9062 80.25 365.0938 80.25 Q365.3594 80.25 365.5156 80.4062 Q365.6875 80.5469 365.6875 80.75 Q365.6875 81 365.5938 81.0938 Q365.4219 81.25 365.1875 81.25 Q365.0469 81.25 364.9062 81.1875 Q364.6094 81.0938 364.5 81.0938 Q364.3438 81.0938 364.1406 81.2656 Q363.75 81.5938 363.2031 82.5469 L363.7188 84.7188 Q363.8438 85.2188 363.9219 85.3281 Q364 85.4219 364.0938 85.4219 Q364.2188 85.4219 364.4062 85.2812 Q364.75 84.9844 365 84.5156 L365.2188 84.625 Q364.8125 85.375 364.2031 85.875 Q363.8594 86.1562 363.6094 86.1562 Q363.25 86.1562 363.0469 85.75 Q362.9062 85.5 362.5 83.625 Q361.5 85.3438 360.9062 85.8281 Q360.5156 86.1562 360.1562 86.1562 Q359.9062 86.1562 359.6875 85.9688 Q359.5469 85.8281 359.5469 85.5938 Q359.5469 85.3906 359.6875 85.25 Q359.8281 85.1094 360.0312 85.1094 Q360.2344 85.1094 360.4531 85.3125 Q360.625 85.4531 360.7188 85.4531 Q360.7812 85.4531 360.9062 85.3594 Q361.2031 85.1094 361.7188 84.3125 Q362.2344 83.5156 362.3906 83.1562 Q362 81.6094 361.9688 81.5312 Q361.8281 81.1094 361.5938 80.9375 Q361.3594 80.7656 360.8906 80.7656 Q360.75 80.7656 360.5625 80.7812 L360.5625 80.5469 L362.25 80.25 Z"
                  style="stroke:none; clip-path:url(#clipPath3);"/>
        </g>
        <g transform="translate(6,5)"
           style="text-rendering:optimizeLegibility; font-family:'Times New Roman'; color-interpolation:linearRGB; color-rendering:optimizeQuality; image-rendering:optimizeQuality;">
            <path d="M18 27.7612 L18 32.7612"
                  style="fill:none; clip-path:url(#clipPath1);"/>
        </g>
        <g style="text-rendering:optimizeSpeed; font-family:'Times New Roman'; color-interpolation:linearRGB; color-rendering:optimizeQuality; image-rendering:optimizeQuality;">
            <path d="M22.4531 50.8906 L12.5469 50.8906 L12.5469 50.1094 L22.4531 50.1094 L22.4531 50.8906 Z"
                  style="stroke:none; clip-path:url(#clipPath5);"/>
        </g>
        <g style="text-rendering:optimizeLegibility; font-family:'Times New Roman'; color-interpolation:linearRGB; color-rendering:optimizeQuality; image-rendering:optimizeQuality;">
            <path d="M27.875 53.0938 L27.1875 55 L21.3281 55 L21.3281 54.7344 Q23.9062 52.375 24.9531 50.875 Q26.0156 49.375 26.0156 48.1406 Q26.0156 47.2031 25.4375 46.5938 Q24.8594 45.9844 24.0469 45.9844 Q23.3281 45.9844 22.7344 46.4219 Q22.1562 46.8438 21.875 47.6719 L21.6094 47.6719 Q21.7969 46.3125 22.5469 45.5938 Q23.3125 44.8594 24.4375 44.8594 Q25.6562 44.8594 26.4531 45.6406 Q27.2656 46.4219 27.2656 47.4688 Q27.2656 48.2188 26.9219 48.9844 Q26.375 50.1719 25.1562 51.4844 Q23.3438 53.4844 22.875 53.8906 L25.4688 53.8906 Q26.2656 53.8906 26.5781 53.8438 Q26.9062 53.7812 27.1562 53.6094 Q27.4219 53.4219 27.6094 53.0938 L27.875 53.0938 Z"
                  style="stroke:none; clip-path:url(#clipPath4);"/>
            <path d="M38.9531 52.7344 Q38.9531 53.1719 38.8281 53.625 Q38.7031 54.0625 38.4844 54.4375 Q38.2656 54.7969 37.9219 55.0156 Q37.5781 55.2344 37.1562 55.2344 Q36.7344 55.2344 36.3906 54.875 Q36.0469 54.5156 35.8281 53.7969 Q35.7969 53.6875 35.7656 53.5312 Q35.75 53.3594 35.7344 53.1875 Q35.7188 53 35.7031 52.8281 Q35.7031 52.6562 35.7031 52.5469 Q35.7031 51.6875 35.8281 50.7969 Q35.9531 49.8906 36.0312 48.9844 L34.3281 48.9844 Q34.1875 50.6719 34.0312 51.8281 Q33.875 52.9688 33.7188 53.8906 Q33.6719 54.125 33.625 54.3438 Q33.5781 54.5469 33.5 54.7031 Q33.3438 55.0469 33.0938 55.1562 Q32.8594 55.2812 32.6562 55.2812 Q32.3125 55.2812 32.0781 55.0312 Q31.8594 54.7969 31.8594 54.5 Q31.8594 54.1875 32.0156 53.9844 Q32.1875 53.7656 32.3906 53.5156 Q32.5938 53.2969 32.7656 53.0469 Q32.9375 52.7969 32.9844 52.4219 L33.4219 48.9844 L32.7031 48.9844 Q32.4688 48.9844 32.1875 49.1094 Q31.9062 49.2188 31.7031 49.5 L31.4062 49.9375 L31.1562 49.9375 Q31.4844 48.875 31.9688 48.2812 Q32.4688 47.6875 33.2812 47.6875 L38.8281 47.6875 L38.8281 48.9844 L36.9375 48.9844 Q36.8906 49.4219 36.8438 49.9062 Q36.8125 50.375 36.7969 50.8594 Q36.7812 51.3281 36.7656 51.75 Q36.7656 52.1719 36.7656 52.4688 Q36.7656 52.7188 36.8125 52.9688 Q36.8594 53.2188 36.9844 53.4219 Q37.1094 53.6094 37.2969 53.7344 Q37.4844 53.8594 37.75 53.8594 Q37.9219 53.8594 38.1406 53.75 Q38.3594 53.625 38.5 53.3438 Q38.5625 53.2344 38.5781 53.0781 Q38.6094 52.9219 38.625 52.7344 L38.9531 52.7344 L38.9531 52.7344 Z"
                  style="clip-path:url(#clipPath4); stroke:none;"/>
        </g>
        <g transform="translate(6,5)"
           style="text-rendering:optimizeLegibility; font-family:'Times New Roman'; color-interpolation:linearRGB; color-rendering:optimizeQuality; image-rendering:optimizeQuality;">
            <path d="M75.4973 27.7612 L75.4973 32.7612"
                  style="fill:none; clip-path:url(#clipPath1);"/>
        </g>
        <g style="text-rendering:optimizeSpeed; font-family:'Times New Roman'; color-interpolation:linearRGB; color-rendering:optimizeQuality; image-rendering:optimizeQuality;">
            <path d="M74.4531 60.8906 L64.5469 60.8906 L64.5469 60.1094 L74.4531 60.1094 L74.4531 60.8906 Z"
                  style="stroke:none; clip-path:url(#clipPath6);"/>
        </g>
        <g style="text-rendering:optimizeLegibility; font-family:'Times New Roman'; color-interpolation:linearRGB; color-rendering:optimizeQuality; image-rendering:optimizeQuality;">
            <path d="M78.7656 46.9531 Q79.1875 45.9531 79.8281 45.4062 Q80.4844 44.8594 81.4531 44.8594 Q82.6406 44.8594 83.2812 45.6406 Q83.7656 46.2188 83.7656 46.875 Q83.7656 47.9688 82.4062 49.125 Q83.3125 49.4844 83.7812 50.1562 Q84.25 50.8125 84.25 51.7188 Q84.25 53 83.4375 53.9375 Q82.3594 55.1719 80.3438 55.1719 Q79.3281 55.1719 78.9688 54.9219 Q78.6094 54.6719 78.6094 54.3906 Q78.6094 54.1719 78.7812 54.0156 Q78.9531 53.8594 79.1875 53.8594 Q79.375 53.8594 79.5625 53.9219 Q79.6875 53.9531 80.125 54.1875 Q80.5781 54.4062 80.7344 54.4531 Q81.0156 54.5312 81.3125 54.5312 Q82.0625 54.5312 82.6094 53.9531 Q83.1719 53.375 83.1719 52.5938 Q83.1719 52.0156 82.9219 51.4688 Q82.7188 51.0469 82.5 50.8438 Q82.1875 50.5469 81.625 50.3125 Q81.0781 50.0781 80.5156 50.0781 L80.2812 50.0781 L80.2812 49.8438 Q80.8594 49.7812 81.4375 49.4375 Q82.0156 49.0938 82.2812 48.6094 Q82.5469 48.125 82.5469 47.5469 Q82.5469 46.7969 82.0781 46.3281 Q81.6094 45.8594 80.9062 45.8594 Q79.7656 45.8594 79 47.0781 L78.7656 46.9531 Z"
                  style="stroke:none; clip-path:url(#clipPath4);"/>
            <path d="M95.9531 52.7344 Q95.9531 53.1719 95.8281 53.625 Q95.7031 54.0625 95.4844 54.4375 Q95.2656 54.7969 94.9219 55.0156 Q94.5781 55.2344 94.1562 55.2344 Q93.7344 55.2344 93.3906 54.875 Q93.0469 54.5156 92.8281 53.7969 Q92.7969 53.6875 92.7656 53.5312 Q92.75 53.3594 92.7344 53.1875 Q92.7188 53 92.7031 52.8281 Q92.7031 52.6562 92.7031 52.5469 Q92.7031 51.6875 92.8281 50.7969 Q92.9531 49.8906 93.0312 48.9844 L91.3281 48.9844 Q91.1875 50.6719 91.0312 51.8281 Q90.875 52.9688 90.7188 53.8906 Q90.6719 54.125 90.625 54.3438 Q90.5781 54.5469 90.5 54.7031 Q90.3438 55.0469 90.0938 55.1562 Q89.8594 55.2812 89.6562 55.2812 Q89.3125 55.2812 89.0781 55.0312 Q88.8594 54.7969 88.8594 54.5 Q88.8594 54.1875 89.0156 53.9844 Q89.1875 53.7656 89.3906 53.5156 Q89.5938 53.2969 89.7656 53.0469 Q89.9375 52.7969 89.9844 52.4219 L90.4219 48.9844 L89.7031 48.9844 Q89.4688 48.9844 89.1875 49.1094 Q88.9062 49.2188 88.7031 49.5 L88.4062 49.9375 L88.1562 49.9375 Q88.4844 48.875 88.9688 48.2812 Q89.4688 47.6875 90.2812 47.6875 L95.8281 47.6875 L95.8281 48.9844 L93.9375 48.9844 Q93.8906 49.4219 93.8438 49.9062 Q93.8125 50.375 93.7969 50.8594 Q93.7812 51.3281 93.7656 51.75 Q93.7656 52.1719 93.7656 52.4688 Q93.7656 52.7188 93.8125 52.9688 Q93.8594 53.2188 93.9844 53.4219 Q94.1094 53.6094 94.2969 53.7344 Q94.4844 53.8594 94.75 53.8594 Q94.9219 53.8594 95.1406 53.75 Q95.3594 53.625 95.5 53.3438 Q95.5625 53.2344 95.5781 53.0781 Q95.6094 52.9219 95.625 52.7344 L95.9531 52.7344 L95.9531 52.7344 Z"
                  style="clip-path:url(#clipPath4); stroke:none;"/>
            <path d="M89.875 73.0938 L89.1875 75 L83.3281 75 L83.3281 74.7344 Q85.9062 72.375 86.9531 70.875 Q88.0156 69.375 88.0156 68.1406 Q88.0156 67.2031 87.4375 66.5938 Q86.8594 65.9844 86.0469 65.9844 Q85.3281 65.9844 84.7344 66.4219 Q84.1562 66.8438 83.875 67.6719 L83.6094 67.6719 Q83.7969 66.3125 84.5469 65.5938 Q85.3125 64.8594 86.4375 64.8594 Q87.6562 64.8594 88.4531 65.6406 Q89.2656 66.4219 89.2656 67.4688 Q89.2656 68.2188 88.9219 68.9844 Q88.375 70.1719 87.1562 71.4844 Q85.3438 73.4844 84.875 73.8906 L87.4688 73.8906 Q88.2656 73.8906 88.5781 73.8438 Q88.9062 73.7812 89.1562 73.6094 Q89.4219 73.4219 89.6094 73.0938 L89.875 73.0938 Z"
                  style="clip-path:url(#clipPath4); stroke:none;"/>
            <line x1="75" x2="99" y1="60"
                  style="fill:none; clip-path:url(#clipPath4);" y2="60"/>
        </g>
        <g transform="translate(6,5)"
           style="text-rendering:optimizeLegibility; font-family:'Times New Roman'; color-interpolation:linearRGB; color-rendering:optimizeQuality; image-rendering:optimizeQuality;">
            <path d="M132.9947 27.7612 L132.9947 32.7612"
                  style="fill:none; clip-path:url(#clipPath1);"/>
        </g>
        <g style="text-rendering:optimizeSpeed; font-family:'Times New Roman'; color-interpolation:linearRGB; color-rendering:optimizeQuality; image-rendering:optimizeQuality;">
            <path d="M141.4531 50.8906 L131.5469 50.8906 L131.5469 50.1094 L141.4531 50.1094 L141.4531 50.8906 Z"
                  style="stroke:none; clip-path:url(#clipPath7);"/>
        </g>
        <g style="text-rendering:optimizeLegibility; font-family:'Times New Roman'; color-interpolation:linearRGB; color-rendering:optimizeQuality; image-rendering:optimizeQuality;">
            <path d="M147.9531 52.7344 Q147.9531 53.1719 147.8281 53.625 Q147.7031 54.0625 147.4844 54.4375 Q147.2656 54.7969 146.9219 55.0156 Q146.5781 55.2344 146.1562 55.2344 Q145.7344 55.2344 145.3906 54.875 Q145.0469 54.5156 144.8281 53.7969 Q144.7969 53.6875 144.7656 53.5312 Q144.75 53.3594 144.7344 53.1875 Q144.7188 53 144.7031 52.8281 Q144.7031 52.6562 144.7031 52.5469 Q144.7031 51.6875 144.8281 50.7969 Q144.9531 49.8906 145.0312 48.9844 L143.3281 48.9844 Q143.1875 50.6719 143.0312 51.8281 Q142.875 52.9688 142.7188 53.8906 Q142.6719 54.125 142.625 54.3438 Q142.5781 54.5469 142.5 54.7031 Q142.3438 55.0469 142.0938 55.1562 Q141.8594 55.2812 141.6562 55.2812 Q141.3125 55.2812 141.0781 55.0312 Q140.8594 54.7969 140.8594 54.5 Q140.8594 54.1875 141.0156 53.9844 Q141.1875 53.7656 141.3906 53.5156 Q141.5938 53.2969 141.7656 53.0469 Q141.9375 52.7969 141.9844 52.4219 L142.4219 48.9844 L141.7031 48.9844 Q141.4688 48.9844 141.1875 49.1094 Q140.9062 49.2188 140.7031 49.5 L140.4062 49.9375 L140.1562 49.9375 Q140.4844 48.875 140.9688 48.2812 Q141.4688 47.6875 142.2812 47.6875 L147.8281 47.6875 L147.8281 48.9844 L145.9375 48.9844 Q145.8906 49.4219 145.8438 49.9062 Q145.8125 50.375 145.7969 50.8594 Q145.7812 51.3281 145.7656 51.75 Q145.7656 52.1719 145.7656 52.4688 Q145.7656 52.7188 145.8125 52.9688 Q145.8594 53.2188 145.9844 53.4219 Q146.1094 53.6094 146.2969 53.7344 Q146.4844 53.8594 146.75 53.8594 Q146.9219 53.8594 147.1406 53.75 Q147.3594 53.625 147.5 53.3438 Q147.5625 53.2344 147.5781 53.0781 Q147.6094 52.9219 147.625 52.7344 L147.9531 52.7344 L147.9531 52.7344 Z"
                  style="stroke:none; clip-path:url(#clipPath4);"/>
        </g>
        <g transform="translate(6,5)"
           style="text-rendering:optimizeLegibility; font-family:'Times New Roman'; color-interpolation:linearRGB; color-rendering:optimizeQuality; image-rendering:optimizeQuality;">
            <path d="M190.492 27.7612 L190.492 32.7612"
                  style="fill:none; clip-path:url(#clipPath1);"/>
        </g>
        <g style="text-rendering:optimizeSpeed; font-family:'Times New Roman'; color-interpolation:linearRGB; color-rendering:optimizeQuality; image-rendering:optimizeQuality;">
            <path d="M194.4531 60.8906 L184.5469 60.8906 L184.5469 60.1094 L194.4531 60.1094 L194.4531 60.8906 Z"
                  style="stroke:none; clip-path:url(#clipPath8);"/>
        </g>
        <g style="text-rendering:optimizeLegibility; font-family:'Times New Roman'; color-interpolation:linearRGB; color-rendering:optimizeQuality; image-rendering:optimizeQuality;">
            <path d="M205.9531 52.7344 Q205.9531 53.1719 205.8281 53.625 Q205.7031 54.0625 205.4844 54.4375 Q205.2656 54.7969 204.9219 55.0156 Q204.5781 55.2344 204.1562 55.2344 Q203.7344 55.2344 203.3906 54.875 Q203.0469 54.5156 202.8281 53.7969 Q202.7969 53.6875 202.7656 53.5312 Q202.75 53.3594 202.7344 53.1875 Q202.7188 53 202.7031 52.8281 Q202.7031 52.6562 202.7031 52.5469 Q202.7031 51.6875 202.8281 50.7969 Q202.9531 49.8906 203.0312 48.9844 L201.3281 48.9844 Q201.1875 50.6719 201.0312 51.8281 Q200.875 52.9688 200.7188 53.8906 Q200.6719 54.125 200.625 54.3438 Q200.5781 54.5469 200.5 54.7031 Q200.3438 55.0469 200.0938 55.1562 Q199.8594 55.2812 199.6562 55.2812 Q199.3125 55.2812 199.0781 55.0312 Q198.8594 54.7969 198.8594 54.5 Q198.8594 54.1875 199.0156 53.9844 Q199.1875 53.7656 199.3906 53.5156 Q199.5938 53.2969 199.7656 53.0469 Q199.9375 52.7969 199.9844 52.4219 L200.4219 48.9844 L199.7031 48.9844 Q199.4688 48.9844 199.1875 49.1094 Q198.9062 49.2188 198.7031 49.5 L198.4062 49.9375 L198.1562 49.9375 Q198.4844 48.875 198.9688 48.2812 Q199.4688 47.6875 200.2812 47.6875 L205.8281 47.6875 L205.8281 48.9844 L203.9375 48.9844 Q203.8906 49.4219 203.8438 49.9062 Q203.8125 50.375 203.7969 50.8594 Q203.7812 51.3281 203.7656 51.75 Q203.7656 52.1719 203.7656 52.4688 Q203.7656 52.7188 203.8125 52.9688 Q203.8594 53.2188 203.9844 53.4219 Q204.1094 53.6094 204.2969 53.7344 Q204.4844 53.8594 204.75 53.8594 Q204.9219 53.8594 205.1406 53.75 Q205.3594 53.625 205.5 53.3438 Q205.5625 53.2344 205.5781 53.0781 Q205.6094 52.9219 205.625 52.7344 L205.9531 52.7344 L205.9531 52.7344 Z"
                  style="stroke:none; clip-path:url(#clipPath4);"/>
            <path d="M204.875 73.0938 L204.1875 75 L198.3281 75 L198.3281 74.7344 Q200.9062 72.375 201.9531 70.875 Q203.0156 69.375 203.0156 68.1406 Q203.0156 67.2031 202.4375 66.5938 Q201.8594 65.9844 201.0469 65.9844 Q200.3281 65.9844 199.7344 66.4219 Q199.1562 66.8438 198.875 67.6719 L198.6094 67.6719 Q198.7969 66.3125 199.5469 65.5938 Q200.3125 64.8594 201.4375 64.8594 Q202.6562 64.8594 203.4531 65.6406 Q204.2656 66.4219 204.2656 67.4688 Q204.2656 68.2188 203.9219 68.9844 Q203.375 70.1719 202.1562 71.4844 Q200.3438 73.4844 199.875 73.8906 L202.4688 73.8906 Q203.2656 73.8906 203.5781 73.8438 Q203.9062 73.7812 204.1562 73.6094 Q204.4219 73.4219 204.6094 73.0938 L204.875 73.0938 Z"
                  style="clip-path:url(#clipPath4); stroke:none;"/>
            <line x1="195" x2="209" y1="60"
                  style="fill:none; clip-path:url(#clipPath4);" y2="60"/>
        </g>
        <g transform="translate(6,5)"
           style="text-rendering:optimizeLegibility; font-family:'Times New Roman'; color-interpolation:linearRGB; color-rendering:optimizeQuality; image-rendering:optimizeQuality;">
            <path d="M247.9894 27.7612 L247.9894 32.7612"
                  style="fill:none; clip-path:url(#clipPath1);"/>
            <path d="M242.5469 46.0938 Q242.5469 44.3906 243.0469 43.1719 Q243.5625 41.9375 244.4219 41.3438 Q245.0781 40.8594 245.7812 40.8594 Q246.9219 40.8594 247.8281 42.0312 Q248.9688 43.4688 248.9688 45.9375 Q248.9688 47.6719 248.4688 48.875 Q247.9688 50.0781 247.1875 50.625 Q246.4219 51.1719 245.7031 51.1719 Q244.2812 51.1719 243.3438 49.5 Q242.5469 48.0781 242.5469 46.0938 ZM243.9844 46.2812 Q243.9844 48.3281 244.4844 49.625 Q244.9062 50.7188 245.7344 50.7188 Q246.125 50.7188 246.5469 50.3594 Q246.9688 50 247.1875 49.1719 Q247.5312 47.9062 247.5312 45.6094 Q247.5312 43.9219 247.1719 42.7812 Q246.9219 41.9375 246.5 41.5938 Q246.2031 41.3438 245.7656 41.3438 Q245.2812 41.3438 244.8906 41.7969 Q244.3594 42.4062 244.1719 43.7188 Q243.9844 45.0156 243.9844 46.2812 Z"
                  style="clip-path:url(#clipPath4); stroke:none;"
                  transform="translate(-6,-5)"/>
        </g>
        <g transform="translate(6,5)"
           style="text-rendering:optimizeLegibility; font-family:'Times New Roman'; color-interpolation:linearRGB; color-rendering:optimizeQuality; image-rendering:optimizeQuality;">
            <path d="M305.4867 27.7612 L305.4867 32.7612"
                  style="fill:none; clip-path:url(#clipPath1);"/>
            <path d="M314.9531 52.7344 Q314.9531 53.1719 314.8281 53.625 Q314.7031 54.0625 314.4844 54.4375 Q314.2656 54.7969 313.9219 55.0156 Q313.5781 55.2344 313.1562 55.2344 Q312.7344 55.2344 312.3906 54.875 Q312.0469 54.5156 311.8281 53.7969 Q311.7969 53.6875 311.7656 53.5312 Q311.75 53.3594 311.7344 53.1875 Q311.7188 53 311.7031 52.8281 Q311.7031 52.6562 311.7031 52.5469 Q311.7031 51.6875 311.8281 50.7969 Q311.9531 49.8906 312.0312 48.9844 L310.3281 48.9844 Q310.1875 50.6719 310.0312 51.8281 Q309.875 52.9688 309.7188 53.8906 Q309.6719 54.125 309.625 54.3438 Q309.5781 54.5469 309.5 54.7031 Q309.3438 55.0469 309.0938 55.1562 Q308.8594 55.2812 308.6562 55.2812 Q308.3125 55.2812 308.0781 55.0312 Q307.8594 54.7969 307.8594 54.5 Q307.8594 54.1875 308.0156 53.9844 Q308.1875 53.7656 308.3906 53.5156 Q308.5938 53.2969 308.7656 53.0469 Q308.9375 52.7969 308.9844 52.4219 L309.4219 48.9844 L308.7031 48.9844 Q308.4688 48.9844 308.1875 49.1094 Q307.9062 49.2188 307.7031 49.5 L307.4062 49.9375 L307.1562 49.9375 Q307.4844 48.875 307.9688 48.2812 Q308.4688 47.6875 309.2812 47.6875 L314.8281 47.6875 L314.8281 48.9844 L312.9375 48.9844 Q312.8906 49.4219 312.8438 49.9062 Q312.8125 50.375 312.7969 50.8594 Q312.7812 51.3281 312.7656 51.75 Q312.7656 52.1719 312.7656 52.4688 Q312.7656 52.7188 312.8125 52.9688 Q312.8594 53.2188 312.9844 53.4219 Q313.1094 53.6094 313.2969 53.7344 Q313.4844 53.8594 313.75 53.8594 Q313.9219 53.8594 314.1406 53.75 Q314.3594 53.625 314.5 53.3438 Q314.5625 53.2344 314.5781 53.0781 Q314.6094 52.9219 314.625 52.7344 L314.9531 52.7344 L314.9531 52.7344 Z"
                  style="clip-path:url(#clipPath4); stroke:none;"
                  transform="translate(-6,-5)"/>
            <path d="M313.875 73.0938 L313.1875 75 L307.3281 75 L307.3281 74.7344 Q309.9062 72.375 310.9531 70.875 Q312.0156 69.375 312.0156 68.1406 Q312.0156 67.2031 311.4375 66.5938 Q310.8594 65.9844 310.0469 65.9844 Q309.3281 65.9844 308.7344 66.4219 Q308.1562 66.8438 307.875 67.6719 L307.6094 67.6719 Q307.7969 66.3125 308.5469 65.5938 Q309.3125 64.8594 310.4375 64.8594 Q311.6562 64.8594 312.4531 65.6406 Q313.2656 66.4219 313.2656 67.4688 Q313.2656 68.2188 312.9219 68.9844 Q312.375 70.1719 311.1562 71.4844 Q309.3438 73.4844 308.875 73.8906 L311.4688 73.8906 Q312.2656 73.8906 312.5781 73.8438 Q312.9062 73.7812 313.1562 73.6094 Q313.4219 73.4219 313.6094 73.0938 L313.875 73.0938 Z"
                  style="clip-path:url(#clipPath4); stroke:none;"
                  transform="translate(-6,-5)"/>
            <line transform="translate(-6,-5)" x1="304" x2="318" y1="60"
                  style="clip-path:url(#clipPath4); fill:none;" y2="60"/>
        </g>
        <g transform="translate(6,5)"
           style="text-rendering:optimizeLegibility; font-family:'Times New Roman'; color-interpolation:linearRGB; color-rendering:optimizeQuality; image-rendering:optimizeQuality;">
            <path d="M362.9841 27.7612 L362.9841 32.7612"
                  style="fill:none; clip-path:url(#clipPath1);"/>
            <path d="M371.9531 52.7344 Q371.9531 53.1719 371.8281 53.625 Q371.7031 54.0625 371.4844 54.4375 Q371.2656 54.7969 370.9219 55.0156 Q370.5781 55.2344 370.1562 55.2344 Q369.7344 55.2344 369.3906 54.875 Q369.0469 54.5156 368.8281 53.7969 Q368.7969 53.6875 368.7656 53.5312 Q368.75 53.3594 368.7344 53.1875 Q368.7188 53 368.7031 52.8281 Q368.7031 52.6562 368.7031 52.5469 Q368.7031 51.6875 368.8281 50.7969 Q368.9531 49.8906 369.0312 48.9844 L367.3281 48.9844 Q367.1875 50.6719 367.0312 51.8281 Q366.875 52.9688 366.7188 53.8906 Q366.6719 54.125 366.625 54.3438 Q366.5781 54.5469 366.5 54.7031 Q366.3438 55.0469 366.0938 55.1562 Q365.8594 55.2812 365.6562 55.2812 Q365.3125 55.2812 365.0781 55.0312 Q364.8594 54.7969 364.8594 54.5 Q364.8594 54.1875 365.0156 53.9844 Q365.1875 53.7656 365.3906 53.5156 Q365.5938 53.2969 365.7656 53.0469 Q365.9375 52.7969 365.9844 52.4219 L366.4219 48.9844 L365.7031 48.9844 Q365.4688 48.9844 365.1875 49.1094 Q364.9062 49.2188 364.7031 49.5 L364.4062 49.9375 L364.1562 49.9375 Q364.4844 48.875 364.9688 48.2812 Q365.4688 47.6875 366.2812 47.6875 L371.8281 47.6875 L371.8281 48.9844 L369.9375 48.9844 Q369.8906 49.4219 369.8438 49.9062 Q369.8125 50.375 369.7969 50.8594 Q369.7812 51.3281 369.7656 51.75 Q369.7656 52.1719 369.7656 52.4688 Q369.7656 52.7188 369.8125 52.9688 Q369.8594 53.2188 369.9844 53.4219 Q370.1094 53.6094 370.2969 53.7344 Q370.4844 53.8594 370.75 53.8594 Q370.9219 53.8594 371.1406 53.75 Q371.3594 53.625 371.5 53.3438 Q371.5625 53.2344 371.5781 53.0781 Q371.6094 52.9219 371.625 52.7344 L371.9531 52.7344 L371.9531 52.7344 Z"
                  style="clip-path:url(#clipPath4); stroke:none;"
                  transform="translate(-6,-5)"/>
        </g>
        <g transform="translate(6,5)"
           style="text-rendering:optimizeLegibility; font-family:'Times New Roman'; color-interpolation:linearRGB; color-rendering:optimizeQuality; image-rendering:optimizeQuality;">
            <path d="M420.4814 27.7612 L420.4814 32.7612"
                  style="fill:none; clip-path:url(#clipPath1);"/>
            <path d="M417.7656 46.9531 Q418.1875 45.9531 418.8281 45.4062 Q419.4844 44.8594 420.4531 44.8594 Q421.6406 44.8594 422.2812 45.6406 Q422.7656 46.2188 422.7656 46.875 Q422.7656 47.9688 421.4062 49.125 Q422.3125 49.4844 422.7812 50.1562 Q423.25 50.8125 423.25 51.7188 Q423.25 53 422.4375 53.9375 Q421.3594 55.1719 419.3438 55.1719 Q418.3281 55.1719 417.9688 54.9219 Q417.6094 54.6719 417.6094 54.3906 Q417.6094 54.1719 417.7812 54.0156 Q417.9531 53.8594 418.1875 53.8594 Q418.375 53.8594 418.5625 53.9219 Q418.6875 53.9531 419.125 54.1875 Q419.5781 54.4062 419.7344 54.4531 Q420.0156 54.5312 420.3125 54.5312 Q421.0625 54.5312 421.6094 53.9531 Q422.1719 53.375 422.1719 52.5938 Q422.1719 52.0156 421.9219 51.4688 Q421.7188 51.0469 421.5 50.8438 Q421.1875 50.5469 420.625 50.3125 Q420.0781 50.0781 419.5156 50.0781 L419.2812 50.0781 L419.2812 49.8438 Q419.8594 49.7812 420.4375 49.4375 Q421.0156 49.0938 421.2812 48.6094 Q421.5469 48.125 421.5469 47.5469 Q421.5469 46.7969 421.0781 46.3281 Q420.6094 45.8594 419.9062 45.8594 Q418.7656 45.8594 418 47.0781 L417.7656 46.9531 Z"
                  style="clip-path:url(#clipPath4); stroke:none;"
                  transform="translate(-6,-5)"/>
            <path d="M434.9531 52.7344 Q434.9531 53.1719 434.8281 53.625 Q434.7031 54.0625 434.4844 54.4375 Q434.2656 54.7969 433.9219 55.0156 Q433.5781 55.2344 433.1562 55.2344 Q432.7344 55.2344 432.3906 54.875 Q432.0469 54.5156 431.8281 53.7969 Q431.7969 53.6875 431.7656 53.5312 Q431.75 53.3594 431.7344 53.1875 Q431.7188 53 431.7031 52.8281 Q431.7031 52.6562 431.7031 52.5469 Q431.7031 51.6875 431.8281 50.7969 Q431.9531 49.8906 432.0312 48.9844 L430.3281 48.9844 Q430.1875 50.6719 430.0312 51.8281 Q429.875 52.9688 429.7188 53.8906 Q429.6719 54.125 429.625 54.3438 Q429.5781 54.5469 429.5 54.7031 Q429.3438 55.0469 429.0938 55.1562 Q428.8594 55.2812 428.6562 55.2812 Q428.3125 55.2812 428.0781 55.0312 Q427.8594 54.7969 427.8594 54.5 Q427.8594 54.1875 428.0156 53.9844 Q428.1875 53.7656 428.3906 53.5156 Q428.5938 53.2969 428.7656 53.0469 Q428.9375 52.7969 428.9844 52.4219 L429.4219 48.9844 L428.7031 48.9844 Q428.4688 48.9844 428.1875 49.1094 Q427.9062 49.2188 427.7031 49.5 L427.4062 49.9375 L427.1562 49.9375 Q427.4844 48.875 427.9688 48.2812 Q428.4688 47.6875 429.2812 47.6875 L434.8281 47.6875 L434.8281 48.9844 L432.9375 48.9844 Q432.8906 49.4219 432.8438 49.9062 Q432.8125 50.375 432.7969 50.8594 Q432.7812 51.3281 432.7656 51.75 Q432.7656 52.1719 432.7656 52.4688 Q432.7656 52.7188 432.8125 52.9688 Q432.8594 53.2188 432.9844 53.4219 Q433.1094 53.6094 433.2969 53.7344 Q433.4844 53.8594 433.75 53.8594 Q433.9219 53.8594 434.1406 53.75 Q434.3594 53.625 434.5 53.3438 Q434.5625 53.2344 434.5781 53.0781 Q434.6094 52.9219 434.625 52.7344 L434.9531 52.7344 L434.9531 52.7344 Z"
                  style="clip-path:url(#clipPath4); stroke:none;"
                  transform="translate(-6,-5)"/>
            <path d="M428.875 73.0938 L428.1875 75 L422.3281 75 L422.3281 74.7344 Q424.9062 72.375 425.9531 70.875 Q427.0156 69.375 427.0156 68.1406 Q427.0156 67.2031 426.4375 66.5938 Q425.8594 65.9844 425.0469 65.9844 Q424.3281 65.9844 423.7344 66.4219 Q423.1562 66.8438 422.875 67.6719 L422.6094 67.6719 Q422.7969 66.3125 423.5469 65.5938 Q424.3125 64.8594 425.4375 64.8594 Q426.6562 64.8594 427.4531 65.6406 Q428.2656 66.4219 428.2656 67.4688 Q428.2656 68.2188 427.9219 68.9844 Q427.375 70.1719 426.1562 71.4844 Q424.3438 73.4844 423.875 73.8906 L426.4688 73.8906 Q427.2656 73.8906 427.5781 73.8438 Q427.9062 73.7812 428.1562 73.6094 Q428.4219 73.4219 428.6094 73.0938 L428.875 73.0938 Z"
                  style="clip-path:url(#clipPath4); stroke:none;"
                  transform="translate(-6,-5)"/>
            <line transform="translate(-6,-5)" x1="414" x2="438" y1="60"
                  style="clip-path:url(#clipPath4); fill:none;" y2="60"/>
        </g>
        <g transform="translate(6,5)"
           style="text-rendering:optimizeLegibility; font-family:'Times New Roman'; color-interpolation:linearRGB; color-rendering:optimizeQuality; image-rendering:optimizeQuality;">
            <path d="M477.9788 27.7612 L477.9788 32.7612"
                  style="fill:none; clip-path:url(#clipPath1);"/>
            <path d="M480.875 53.0938 L480.1875 55 L474.3281 55 L474.3281 54.7344 Q476.9062 52.375 477.9531 50.875 Q479.0156 49.375 479.0156 48.1406 Q479.0156 47.2031 478.4375 46.5938 Q477.8594 45.9844 477.0469 45.9844 Q476.3281 45.9844 475.7344 46.4219 Q475.1562 46.8438 474.875 47.6719 L474.6094 47.6719 Q474.7969 46.3125 475.5469 45.5938 Q476.3125 44.8594 477.4375 44.8594 Q478.6562 44.8594 479.4531 45.6406 Q480.2656 46.4219 480.2656 47.4688 Q480.2656 48.2188 479.9219 48.9844 Q479.375 50.1719 478.1562 51.4844 Q476.3438 53.4844 475.875 53.8906 L478.4688 53.8906 Q479.2656 53.8906 479.5781 53.8438 Q479.9062 53.7812 480.1562 53.6094 Q480.4219 53.4219 480.6094 53.0938 L480.875 53.0938 Z"
                  style="clip-path:url(#clipPath4); stroke:none;"
                  transform="translate(-6,-5)"/>
            <path d="M491.9531 52.7344 Q491.9531 53.1719 491.8281 53.625 Q491.7031 54.0625 491.4844 54.4375 Q491.2656 54.7969 490.9219 55.0156 Q490.5781 55.2344 490.1562 55.2344 Q489.7344 55.2344 489.3906 54.875 Q489.0469 54.5156 488.8281 53.7969 Q488.7969 53.6875 488.7656 53.5312 Q488.75 53.3594 488.7344 53.1875 Q488.7188 53 488.7031 52.8281 Q488.7031 52.6562 488.7031 52.5469 Q488.7031 51.6875 488.8281 50.7969 Q488.9531 49.8906 489.0312 48.9844 L487.3281 48.9844 Q487.1875 50.6719 487.0312 51.8281 Q486.875 52.9688 486.7188 53.8906 Q486.6719 54.125 486.625 54.3438 Q486.5781 54.5469 486.5 54.7031 Q486.3438 55.0469 486.0938 55.1562 Q485.8594 55.2812 485.6562 55.2812 Q485.3125 55.2812 485.0781 55.0312 Q484.8594 54.7969 484.8594 54.5 Q484.8594 54.1875 485.0156 53.9844 Q485.1875 53.7656 485.3906 53.5156 Q485.5938 53.2969 485.7656 53.0469 Q485.9375 52.7969 485.9844 52.4219 L486.4219 48.9844 L485.7031 48.9844 Q485.4688 48.9844 485.1875 49.1094 Q484.9062 49.2188 484.7031 49.5 L484.4062 49.9375 L484.1562 49.9375 Q484.4844 48.875 484.9688 48.2812 Q485.4688 47.6875 486.2812 47.6875 L491.8281 47.6875 L491.8281 48.9844 L489.9375 48.9844 Q489.8906 49.4219 489.8438 49.9062 Q489.8125 50.375 489.7969 50.8594 Q489.7812 51.3281 489.7656 51.75 Q489.7656 52.1719 489.7656 52.4688 Q489.7656 52.7188 489.8125 52.9688 Q489.8594 53.2188 489.9844 53.4219 Q490.1094 53.6094 490.2969 53.7344 Q490.4844 53.8594 490.75 53.8594 Q490.9219 53.8594 491.1406 53.75 Q491.3594 53.625 491.5 53.3438 Q491.5625 53.2344 491.5781 53.0781 Q491.6094 52.9219 491.625 52.7344 L491.9531 52.7344 L491.9531 52.7344 Z"
                  style="clip-path:url(#clipPath4); stroke:none;"
                  transform="translate(-6,-5)"/>
        </g>
        <g transform="translate(6,5)"
           style="text-rendering:optimizeLegibility; font-family:'Times New Roman'; color-interpolation:linearRGB; color-rendering:optimizeQuality; image-rendering:optimizeQuality;">
            <path d="M32.3743 27.7612 L32.3743 30.2612"
                  style="fill:none; clip-path:url(#clipPath1);"/>
        </g>
        <g transform="translate(6,5)"
           style="text-rendering:optimizeLegibility; font-family:'Times New Roman'; color-interpolation:linearRGB; color-rendering:optimizeQuality; image-rendering:optimizeQuality;">
            <path d="M46.7487 27.7612 L46.7487 30.2612"
                  style="fill:none; clip-path:url(#clipPath1);"/>
        </g>
        <g transform="translate(6,5)"
           style="text-rendering:optimizeLegibility; font-family:'Times New Roman'; color-interpolation:linearRGB; color-rendering:optimizeQuality; image-rendering:optimizeQuality;">
            <path d="M61.123 27.7612 L61.123 30.2612"
                  style="fill:none; clip-path:url(#clipPath1);"/>
        </g>
        <g transform="translate(6,5)"
           style="text-rendering:optimizeLegibility; font-family:'Times New Roman'; color-interpolation:linearRGB; color-rendering:optimizeQuality; image-rendering:optimizeQuality;">
            <path d="M89.8717 27.7612 L89.8717 30.2612"
                  style="fill:none; clip-path:url(#clipPath1);"/>
        </g>
        <g transform="translate(6,5)"
           style="text-rendering:optimizeLegibility; font-family:'Times New Roman'; color-interpolation:linearRGB; color-rendering:optimizeQuality; image-rendering:optimizeQuality;">
            <path d="M104.246 27.7612 L104.246 30.2612"
                  style="fill:none; clip-path:url(#clipPath1);"/>
        </g>
        <g transform="translate(6,5)"
           style="text-rendering:optimizeLegibility; font-family:'Times New Roman'; color-interpolation:linearRGB; color-rendering:optimizeQuality; image-rendering:optimizeQuality;">
            <path d="M118.6204 27.7612 L118.6204 30.2612"
                  style="fill:none; clip-path:url(#clipPath1);"/>
        </g>
        <g transform="translate(6,5)"
           style="text-rendering:optimizeLegibility; font-family:'Times New Roman'; color-interpolation:linearRGB; color-rendering:optimizeQuality; image-rendering:optimizeQuality;">
            <path d="M147.369 27.7612 L147.369 30.2612"
                  style="fill:none; clip-path:url(#clipPath1);"/>
        </g>
        <g transform="translate(6,5)"
           style="text-rendering:optimizeLegibility; font-family:'Times New Roman'; color-interpolation:linearRGB; color-rendering:optimizeQuality; image-rendering:optimizeQuality;">
            <path d="M161.7434 27.7612 L161.7434 30.2612"
                  style="fill:none; clip-path:url(#clipPath1);"/>
        </g>
        <g transform="translate(6,5)"
           style="text-rendering:optimizeLegibility; font-family:'Times New Roman'; color-interpolation:linearRGB; color-rendering:optimizeQuality; image-rendering:optimizeQuality;">
            <path d="M176.1177 27.7612 L176.1177 30.2612"
                  style="fill:none; clip-path:url(#clipPath1);"/>
        </g>
        <g transform="translate(6,5)"
           style="text-rendering:optimizeLegibility; font-family:'Times New Roman'; color-interpolation:linearRGB; color-rendering:optimizeQuality; image-rendering:optimizeQuality;">
            <path d="M204.8664 27.7612 L204.8664 30.2612"
                  style="fill:none; clip-path:url(#clipPath1);"/>
        </g>
        <g transform="translate(6,5)"
           style="text-rendering:optimizeLegibility; font-family:'Times New Roman'; color-interpolation:linearRGB; color-rendering:optimizeQuality; image-rendering:optimizeQuality;">
            <path d="M219.2407 27.7612 L219.2407 30.2612"
                  style="fill:none; clip-path:url(#clipPath1);"/>
        </g>
        <g transform="translate(6,5)"
           style="text-rendering:optimizeLegibility; font-family:'Times New Roman'; color-interpolation:linearRGB; color-rendering:optimizeQuality; image-rendering:optimizeQuality;">
            <path d="M233.6151 27.7612 L233.6151 30.2612"
                  style="fill:none; clip-path:url(#clipPath1);"/>
        </g>
        <g transform="translate(6,5)"
           style="text-rendering:optimizeLegibility; font-family:'Times New Roman'; color-interpolation:linearRGB; color-rendering:optimizeQuality; image-rendering:optimizeQuality;">
            <path d="M262.3637 27.7612 L262.3637 30.2612"
                  style="fill:none; clip-path:url(#clipPath1);"/>
        </g>
        <g transform="translate(6,5)"
           style="text-rendering:optimizeLegibility; font-family:'Times New Roman'; color-interpolation:linearRGB; color-rendering:optimizeQuality; image-rendering:optimizeQuality;">
            <path d="M276.738 27.7612 L276.738 30.2612"
                  style="fill:none; clip-path:url(#clipPath1);"/>
        </g>
        <g transform="translate(6,5)"
           style="text-rendering:optimizeLegibility; font-family:'Times New Roman'; color-interpolation:linearRGB; color-rendering:optimizeQuality; image-rendering:optimizeQuality;">
            <path d="M291.1124 27.7612 L291.1124 30.2612"
                  style="fill:none; clip-path:url(#clipPath1);"/>
        </g>
        <g transform="translate(6,5)"
           style="text-rendering:optimizeLegibility; font-family:'Times New Roman'; color-interpolation:linearRGB; color-rendering:optimizeQuality; image-rendering:optimizeQuality;">
            <path d="M319.8611 27.7612 L319.8611 30.2612"
                  style="fill:none; clip-path:url(#clipPath1);"/>
        </g>
        <g transform="translate(6,5)"
           style="text-rendering:optimizeLegibility; font-family:'Times New Roman'; color-interpolation:linearRGB; color-rendering:optimizeQuality; image-rendering:optimizeQuality;">
            <path d="M334.2354 27.7612 L334.2354 30.2612"
                  style="fill:none; clip-path:url(#clipPath1);"/>
        </g>
        <g transform="translate(6,5)"
           style="text-rendering:optimizeLegibility; font-family:'Times New Roman'; color-interpolation:linearRGB; color-rendering:optimizeQuality; image-rendering:optimizeQuality;">
            <path d="M348.6097 27.7612 L348.6097 30.2612"
                  style="fill:none; clip-path:url(#clipPath1);"/>
        </g>
        <g transform="translate(6,5)"
           style="text-rendering:optimizeLegibility; font-family:'Times New Roman'; color-interpolation:linearRGB; color-rendering:optimizeQuality; image-rendering:optimizeQuality;">
            <path d="M377.3584 27.7612 L377.3584 30.2612"
                  style="fill:none; clip-path:url(#clipPath1);"/>
        </g>
        <g transform="translate(6,5)"
           style="text-rendering:optimizeLegibility; font-family:'Times New Roman'; color-interpolation:linearRGB; color-rendering:optimizeQuality; image-rendering:optimizeQuality;">
            <path d="M391.7327 27.7612 L391.7327 30.2612"
                  style="fill:none; clip-path:url(#clipPath1);"/>
        </g>
        <g transform="translate(6,5)"
           style="text-rendering:optimizeLegibility; font-family:'Times New Roman'; color-interpolation:linearRGB; color-rendering:optimizeQuality; image-rendering:optimizeQuality;">
            <path d="M406.1071 27.7612 L406.1071 30.2612"
                  style="fill:none; clip-path:url(#clipPath1);"/>
        </g>
        <g transform="translate(6,5)"
           style="text-rendering:optimizeLegibility; font-family:'Times New Roman'; color-interpolation:linearRGB; color-rendering:optimizeQuality; image-rendering:optimizeQuality;">
            <path d="M434.8557 27.7612 L434.8557 30.2612"
                  style="fill:none; clip-path:url(#clipPath1);"/>
        </g>
        <g transform="translate(6,5)"
           style="text-rendering:optimizeLegibility; font-family:'Times New Roman'; color-interpolation:linearRGB; color-rendering:optimizeQuality; image-rendering:optimizeQuality;">
            <path d="M449.2301 27.7612 L449.2301 30.2612"
                  style="fill:none; clip-path:url(#clipPath1);"/>
        </g>
        <g transform="translate(6,5)"
           style="text-rendering:optimizeLegibility; font-family:'Times New Roman'; color-interpolation:linearRGB; color-rendering:optimizeQuality; image-rendering:optimizeQuality;">
            <path d="M463.6044 27.7612 L463.6044 30.2612"
                  style="fill:none; clip-path:url(#clipPath1);"/>
        </g>
        <g transform="translate(6,5)"
           style="stroke-linecap:butt; text-rendering:optimizeLegibility; color-rendering:optimizeQuality; image-rendering:optimizeQuality; font-family:'Times New Roman'; stroke-linejoin:round; color-interpolation:linearRGB;">
            <path d="M247.9894 486 L247.9894 4.0041"
                  style="fill:none; clip-path:url(#clipPath1);"/>
        </g>
        <g transform="translate(6,5)"
           style="text-rendering:optimizeLegibility; font-family:'Times New Roman'; color-interpolation:linearRGB; color-rendering:optimizeQuality; image-rendering:optimizeQuality;">
            <path d="M247.9894 443.0638 L242.9894 443.0638"
                  style="fill:none; clip-path:url(#clipPath1);"/>
        </g>
        <g style="text-rendering:optimizeSpeed; font-family:'Times New Roman'; color-interpolation:linearRGB; color-rendering:optimizeQuality; image-rendering:optimizeQuality;">
            <path d="M224.4531 449.8906 L214.5469 449.8906 L214.5469 449.1094 L224.4531 449.1094 L224.4531 449.8906 Z"
                  style="stroke:none; clip-path:url(#clipPath9);"/>
        </g>
        <g style="text-rendering:optimizeLegibility; font-family:'Times New Roman'; color-interpolation:linearRGB; color-rendering:optimizeQuality; image-rendering:optimizeQuality;">
            <path d="M224.7656 445.0469 L227.1719 443.8594 L227.4219 443.8594 L227.4219 452.25 Q227.4219 453.0781 227.4844 453.2969 Q227.5625 453.5 227.7812 453.6094 Q228 453.7188 228.6719 453.7344 L228.6719 454 L224.9375 454 L224.9375 453.7344 Q225.6406 453.7188 225.8438 453.6094 Q226.0469 453.5 226.125 453.3281 Q226.2031 453.1406 226.2031 452.25 L226.2031 446.8906 Q226.2031 445.7969 226.1406 445.5 Q226.0781 445.2656 225.9375 445.1562 Q225.8125 445.0469 225.625 445.0469 Q225.3438 445.0469 224.875 445.2656 L224.7656 445.0469 ZM237.2188 443.8594 L237.2188 444.1406 Q236.25 444.2344 235.6406 444.5312 Q235.0312 444.8125 234.4375 445.4062 Q233.8438 446 233.4531 446.7344 Q233.0625 447.4531 232.7969 448.4531 Q233.8438 447.7344 234.9062 447.7344 Q235.9219 447.7344 236.6719 448.5625 Q237.4219 449.375 237.4219 450.6562 Q237.4219 451.9062 236.6719 452.9375 Q235.7656 454.1719 234.2656 454.1719 Q233.25 454.1719 232.5312 453.5 Q231.1406 452.1875 231.1406 450.1094 Q231.1406 448.7656 231.6719 447.5781 Q232.2188 446.375 233.2031 445.4375 Q234.2031 444.5 235.1094 444.1875 Q236.0156 443.8594 236.7969 443.8594 L237.2188 443.8594 ZM232.6719 448.9844 Q232.5312 449.9844 232.5312 450.5938 Q232.5312 451.2969 232.7969 452.125 Q233.0625 452.9375 233.5625 453.4219 Q233.9375 453.7656 234.4844 453.7656 Q235.1094 453.7656 235.6094 453.1719 Q236.125 452.5625 236.125 451.4531 Q236.125 450.2031 235.625 449.2969 Q235.125 448.375 234.2031 448.375 Q233.9219 448.375 233.6094 448.5 Q233.2969 448.6094 232.6719 448.9844 ZM238.5469 449.0938 Q238.5469 447.3906 239.0469 446.1719 Q239.5625 444.9375 240.4219 444.3438 Q241.0781 443.8594 241.7812 443.8594 Q242.9219 443.8594 243.8281 445.0312 Q244.9688 446.4688 244.9688 448.9375 Q244.9688 450.6719 244.4688 451.875 Q243.9688 453.0781 243.1875 453.625 Q242.4219 454.1719 241.7031 454.1719 Q240.2812 454.1719 239.3438 452.5 Q238.5469 451.0781 238.5469 449.0938 ZM239.9844 449.2812 Q239.9844 451.3281 240.4844 452.625 Q240.9062 453.7188 241.7344 453.7188 Q242.125 453.7188 242.5469 453.3594 Q242.9688 453 243.1875 452.1719 Q243.5312 450.9062 243.5312 448.6094 Q243.5312 446.9219 243.1719 445.7812 Q242.9219 444.9375 242.5 444.5938 Q242.2031 444.3438 241.7656 444.3438 Q241.2812 444.3438 240.8906 444.7969 Q240.3594 445.4062 240.1719 446.7188 Q239.9844 448.0156 239.9844 449.2812 Z"
                  style="stroke:none; clip-path:url(#clipPath4);"/>
        </g>
        <g transform="translate(6,5)"
           style="text-rendering:optimizeLegibility; font-family:'Times New Roman'; color-interpolation:linearRGB; color-rendering:optimizeQuality; image-rendering:optimizeQuality;">
            <path d="M247.9894 391.151 L242.9894 391.151"
                  style="fill:none; clip-path:url(#clipPath1);"/>
        </g>
        <g style="text-rendering:optimizeSpeed; font-family:'Times New Roman'; color-interpolation:linearRGB; color-rendering:optimizeQuality; image-rendering:optimizeQuality;">
            <path d="M224.4531 397.8906 L214.5469 397.8906 L214.5469 397.1094 L224.4531 397.1094 L224.4531 397.8906 Z"
                  style="stroke:none; clip-path:url(#clipPath10);"/>
        </g>
        <g style="text-rendering:optimizeLegibility; font-family:'Times New Roman'; color-interpolation:linearRGB; color-rendering:optimizeQuality; image-rendering:optimizeQuality;">
            <path d="M224.7656 393.0469 L227.1719 391.8594 L227.4219 391.8594 L227.4219 400.25 Q227.4219 401.0781 227.4844 401.2969 Q227.5625 401.5 227.7812 401.6094 Q228 401.7188 228.6719 401.7344 L228.6719 402 L224.9375 402 L224.9375 401.7344 Q225.6406 401.7188 225.8438 401.6094 Q226.0469 401.5 226.125 401.3281 Q226.2031 401.1406 226.2031 400.25 L226.2031 394.8906 Q226.2031 393.7969 226.1406 393.5 Q226.0781 393.2656 225.9375 393.1562 Q225.8125 393.0469 225.625 393.0469 Q225.3438 393.0469 224.875 393.2656 L224.7656 393.0469 ZM237.4844 398.3438 L237.4844 399.375 L236.1406 399.375 L236.1406 402 L234.9375 402 L234.9375 399.375 L230.7344 399.375 L230.7344 398.4375 L235.3438 391.8594 L236.1406 391.8594 L236.1406 398.3438 L237.4844 398.3438 ZM234.9375 398.3438 L234.9375 393.4062 L231.4531 398.3438 L234.9375 398.3438 ZM238.5469 397.0938 Q238.5469 395.3906 239.0469 394.1719 Q239.5625 392.9375 240.4219 392.3438 Q241.0781 391.8594 241.7812 391.8594 Q242.9219 391.8594 243.8281 393.0312 Q244.9688 394.4688 244.9688 396.9375 Q244.9688 398.6719 244.4688 399.875 Q243.9688 401.0781 243.1875 401.625 Q242.4219 402.1719 241.7031 402.1719 Q240.2812 402.1719 239.3438 400.5 Q238.5469 399.0781 238.5469 397.0938 ZM239.9844 397.2812 Q239.9844 399.3281 240.4844 400.625 Q240.9062 401.7188 241.7344 401.7188 Q242.125 401.7188 242.5469 401.3594 Q242.9688 401 243.1875 400.1719 Q243.5312 398.9062 243.5312 396.6094 Q243.5312 394.9219 243.1719 393.7812 Q242.9219 392.9375 242.5 392.5938 Q242.2031 392.3438 241.7656 392.3438 Q241.2812 392.3438 240.8906 392.7969 Q240.3594 393.4062 240.1719 394.7188 Q239.9844 396.0156 239.9844 397.2812 Z"
                  style="stroke:none; clip-path:url(#clipPath4);"/>
        </g>
        <g transform="translate(6,5)"
           style="text-rendering:optimizeLegibility; font-family:'Times New Roman'; color-interpolation:linearRGB; color-rendering:optimizeQuality; image-rendering:optimizeQuality;">
            <path d="M247.9894 339.2382 L242.9894 339.2382"
                  style="fill:none; clip-path:url(#clipPath1);"/>
        </g>
        <g style="text-rendering:optimizeSpeed; font-family:'Times New Roman'; color-interpolation:linearRGB; color-rendering:optimizeQuality; image-rendering:optimizeQuality;">
            <path d="M224.4531 345.8906 L214.5469 345.8906 L214.5469 345.1094 L224.4531 345.1094 L224.4531 345.8906 Z"
                  style="stroke:none; clip-path:url(#clipPath11);"/>
        </g>
        <g style="text-rendering:optimizeLegibility; font-family:'Times New Roman'; color-interpolation:linearRGB; color-rendering:optimizeQuality; image-rendering:optimizeQuality;">
            <path d="M224.7656 341.0469 L227.1719 339.8594 L227.4219 339.8594 L227.4219 348.25 Q227.4219 349.0781 227.4844 349.2969 Q227.5625 349.5 227.7812 349.6094 Q228 349.7188 228.6719 349.7344 L228.6719 350 L224.9375 350 L224.9375 349.7344 Q225.6406 349.7188 225.8438 349.6094 Q226.0469 349.5 226.125 349.3281 Q226.2031 349.1406 226.2031 348.25 L226.2031 342.8906 Q226.2031 341.7969 226.1406 341.5 Q226.0781 341.2656 225.9375 341.1562 Q225.8125 341.0469 225.625 341.0469 Q225.3438 341.0469 224.875 341.2656 L224.7656 341.0469 ZM237.375 348.0938 L236.6875 350 L230.8281 350 L230.8281 349.7344 Q233.4062 347.375 234.4531 345.875 Q235.5156 344.375 235.5156 343.1406 Q235.5156 342.2031 234.9375 341.5938 Q234.3594 340.9844 233.5469 340.9844 Q232.8281 340.9844 232.2344 341.4219 Q231.6562 341.8438 231.375 342.6719 L231.1094 342.6719 Q231.2969 341.3125 232.0469 340.5938 Q232.8125 339.8594 233.9375 339.8594 Q235.1562 339.8594 235.9531 340.6406 Q236.7656 341.4219 236.7656 342.4688 Q236.7656 343.2188 236.4219 343.9844 Q235.875 345.1719 234.6562 346.4844 Q232.8438 348.4844 232.375 348.8906 L234.9688 348.8906 Q235.7656 348.8906 236.0781 348.8438 Q236.4062 348.7812 236.6562 348.6094 Q236.9219 348.4219 237.1094 348.0938 L237.375 348.0938 ZM238.5469 345.0938 Q238.5469 343.3906 239.0469 342.1719 Q239.5625 340.9375 240.4219 340.3438 Q241.0781 339.8594 241.7812 339.8594 Q242.9219 339.8594 243.8281 341.0312 Q244.9688 342.4688 244.9688 344.9375 Q244.9688 346.6719 244.4688 347.875 Q243.9688 349.0781 243.1875 349.625 Q242.4219 350.1719 241.7031 350.1719 Q240.2812 350.1719 239.3438 348.5 Q238.5469 347.0781 238.5469 345.0938 ZM239.9844 345.2812 Q239.9844 347.3281 240.4844 348.625 Q240.9062 349.7188 241.7344 349.7188 Q242.125 349.7188 242.5469 349.3594 Q242.9688 349 243.1875 348.1719 Q243.5312 346.9062 243.5312 344.6094 Q243.5312 342.9219 243.1719 341.7812 Q242.9219 340.9375 242.5 340.5938 Q242.2031 340.3438 241.7656 340.3438 Q241.2812 340.3438 240.8906 340.7969 Q240.3594 341.4062 240.1719 342.7188 Q239.9844 344.0156 239.9844 345.2812 Z"
                  style="stroke:none; clip-path:url(#clipPath4);"/>
        </g>
        <g transform="translate(6,5)"
           style="text-rendering:optimizeLegibility; font-family:'Times New Roman'; color-interpolation:linearRGB; color-rendering:optimizeQuality; image-rendering:optimizeQuality;">
            <path d="M247.9894 287.3253 L242.9894 287.3253"
                  style="fill:none; clip-path:url(#clipPath1);"/>
        </g>
        <g style="text-rendering:optimizeSpeed; font-family:'Times New Roman'; color-interpolation:linearRGB; color-rendering:optimizeQuality; image-rendering:optimizeQuality;">
            <path d="M224.4531 293.8906 L214.5469 293.8906 L214.5469 293.1094 L224.4531 293.1094 L224.4531 293.8906 Z"
                  style="stroke:none; clip-path:url(#clipPath12);"/>
        </g>
        <g style="text-rendering:optimizeLegibility; font-family:'Times New Roman'; color-interpolation:linearRGB; color-rendering:optimizeQuality; image-rendering:optimizeQuality;">
            <path d="M224.7656 289.0469 L227.1719 287.8594 L227.4219 287.8594 L227.4219 296.25 Q227.4219 297.0781 227.4844 297.2969 Q227.5625 297.5 227.7812 297.6094 Q228 297.7188 228.6719 297.7344 L228.6719 298 L224.9375 298 L224.9375 297.7344 Q225.6406 297.7188 225.8438 297.6094 Q226.0469 297.5 226.125 297.3281 Q226.2031 297.1406 226.2031 296.25 L226.2031 290.8906 Q226.2031 289.7969 226.1406 289.5 Q226.0781 289.2656 225.9375 289.1562 Q225.8125 289.0469 225.625 289.0469 Q225.3438 289.0469 224.875 289.2656 L224.7656 289.0469 ZM231.0469 293.0938 Q231.0469 291.3906 231.5469 290.1719 Q232.0625 288.9375 232.9219 288.3438 Q233.5781 287.8594 234.2812 287.8594 Q235.4219 287.8594 236.3281 289.0312 Q237.4688 290.4688 237.4688 292.9375 Q237.4688 294.6719 236.9688 295.875 Q236.4688 297.0781 235.6875 297.625 Q234.9219 298.1719 234.2031 298.1719 Q232.7812 298.1719 231.8438 296.5 Q231.0469 295.0781 231.0469 293.0938 ZM232.4844 293.2812 Q232.4844 295.3281 232.9844 296.625 Q233.4062 297.7188 234.2344 297.7188 Q234.625 297.7188 235.0469 297.3594 Q235.4688 297 235.6875 296.1719 Q236.0312 294.9062 236.0312 292.6094 Q236.0312 290.9219 235.6719 289.7812 Q235.4219 288.9375 235 288.5938 Q234.7031 288.3438 234.2656 288.3438 Q233.7812 288.3438 233.3906 288.7969 Q232.8594 289.4062 232.6719 290.7188 Q232.4844 292.0156 232.4844 293.2812 ZM238.5469 293.0938 Q238.5469 291.3906 239.0469 290.1719 Q239.5625 288.9375 240.4219 288.3438 Q241.0781 287.8594 241.7812 287.8594 Q242.9219 287.8594 243.8281 289.0312 Q244.9688 290.4688 244.9688 292.9375 Q244.9688 294.6719 244.4688 295.875 Q243.9688 297.0781 243.1875 297.625 Q242.4219 298.1719 241.7031 298.1719 Q240.2812 298.1719 239.3438 296.5 Q238.5469 295.0781 238.5469 293.0938 ZM239.9844 293.2812 Q239.9844 295.3281 240.4844 296.625 Q240.9062 297.7188 241.7344 297.7188 Q242.125 297.7188 242.5469 297.3594 Q242.9688 297 243.1875 296.1719 Q243.5312 294.9062 243.5312 292.6094 Q243.5312 290.9219 243.1719 289.7812 Q242.9219 288.9375 242.5 288.5938 Q242.2031 288.3438 241.7656 288.3438 Q241.2812 288.3438 240.8906 288.7969 Q240.3594 289.4062 240.1719 290.7188 Q239.9844 292.0156 239.9844 293.2812 Z"
                  style="stroke:none; clip-path:url(#clipPath4);"/>
        </g>
        <g transform="translate(6,5)"
           style="text-rendering:optimizeLegibility; font-family:'Times New Roman'; color-interpolation:linearRGB; color-rendering:optimizeQuality; image-rendering:optimizeQuality;">
            <path d="M247.9894 235.4125 L242.9894 235.4125"
                  style="fill:none; clip-path:url(#clipPath1);"/>
        </g>
        <g style="text-rendering:optimizeSpeed; font-family:'Times New Roman'; color-interpolation:linearRGB; color-rendering:optimizeQuality; image-rendering:optimizeQuality;">
            <path d="M231.4531 241.8906 L221.5469 241.8906 L221.5469 241.1094 L231.4531 241.1094 L231.4531 241.8906 Z"
                  style="stroke:none; clip-path:url(#clipPath13);"/>
        </g>
        <g style="text-rendering:optimizeLegibility; font-family:'Times New Roman'; color-interpolation:linearRGB; color-rendering:optimizeQuality; image-rendering:optimizeQuality;">
            <path d="M232.875 241 Q231.7031 240.0312 231.3594 239.4531 Q231.0156 238.8594 231.0156 238.2344 Q231.0156 237.2656 231.7656 236.5625 Q232.5156 235.8594 233.75 235.8594 Q234.9531 235.8594 235.6875 236.5156 Q236.4219 237.1719 236.4219 238 Q236.4219 238.5625 236.0156 239.1406 Q235.625 239.7188 234.375 240.5 Q235.6562 241.5 236.0781 242.0625 Q236.6406 242.8125 236.6406 243.6406 Q236.6406 244.6875 235.8438 245.4375 Q235.0469 246.1719 233.75 246.1719 Q232.3281 246.1719 231.5312 245.2969 Q230.9062 244.5781 230.9062 243.7344 Q230.9062 243.0781 231.3438 242.4375 Q231.7969 241.7812 232.875 241 ZM234.0312 240.2188 Q234.9062 239.4219 235.1406 238.9688 Q235.375 238.5 235.375 237.9219 Q235.375 237.1562 234.9375 236.7188 Q234.5156 236.2812 233.7656 236.2812 Q233.0156 236.2812 232.5469 236.7188 Q232.0781 237.1562 232.0781 237.7344 Q232.0781 238.1094 232.2656 238.5 Q232.4688 238.875 232.8281 239.2188 L234.0312 240.2188 ZM233.2188 241.2812 Q232.6094 241.7812 232.3125 242.3906 Q232.0312 243 232.0312 243.7031 Q232.0312 244.6406 232.5469 245.2188 Q233.0625 245.7812 233.8594 245.7812 Q234.6562 245.7812 235.125 245.3438 Q235.6094 244.8906 235.6094 244.25 Q235.6094 243.7188 235.3281 243.2969 Q234.8125 242.5312 233.2188 241.2812 ZM238.0469 241.0938 Q238.0469 239.3906 238.5469 238.1719 Q239.0625 236.9375 239.9219 236.3438 Q240.5781 235.8594 241.2812 235.8594 Q242.4219 235.8594 243.3281 237.0312 Q244.4688 238.4688 244.4688 240.9375 Q244.4688 242.6719 243.9688 243.875 Q243.4688 245.0781 242.6875 245.625 Q241.9219 246.1719 241.2031 246.1719 Q239.7812 246.1719 238.8438 244.5 Q238.0469 243.0781 238.0469 241.0938 ZM239.4844 241.2812 Q239.4844 243.3281 239.9844 244.625 Q240.4062 245.7188 241.2344 245.7188 Q241.625 245.7188 242.0469 245.3594 Q242.4688 245 242.6875 244.1719 Q243.0312 242.9062 243.0312 240.6094 Q243.0312 238.9219 242.6719 237.7812 Q242.4219 236.9375 242 236.5938 Q241.7031 236.3438 241.2656 236.3438 Q240.7812 236.3438 240.3906 236.7969 Q239.8594 237.4062 239.6719 238.7188 Q239.4844 240.0156 239.4844 241.2812 Z"
                  style="stroke:none; clip-path:url(#clipPath4);"/>
        </g>
        <g transform="translate(6,5)"
           style="text-rendering:optimizeLegibility; font-family:'Times New Roman'; color-interpolation:linearRGB; color-rendering:optimizeQuality; image-rendering:optimizeQuality;">
            <path d="M247.9894 183.4997 L242.9894 183.4997"
                  style="fill:none; clip-path:url(#clipPath1);"/>
        </g>
        <g style="text-rendering:optimizeSpeed; font-family:'Times New Roman'; color-interpolation:linearRGB; color-rendering:optimizeQuality; image-rendering:optimizeQuality;">
            <path d="M231.4531 189.8906 L221.5469 189.8906 L221.5469 189.1094 L231.4531 189.1094 L231.4531 189.8906 Z"
                  style="stroke:none; clip-path:url(#clipPath14);"/>
        </g>
        <g style="text-rendering:optimizeLegibility; font-family:'Times New Roman'; color-interpolation:linearRGB; color-rendering:optimizeQuality; image-rendering:optimizeQuality;">
            <path d="M236.7188 183.8594 L236.7188 184.1406 Q235.75 184.2344 235.1406 184.5312 Q234.5312 184.8125 233.9375 185.4062 Q233.3438 186 232.9531 186.7344 Q232.5625 187.4531 232.2969 188.4531 Q233.3438 187.7344 234.4062 187.7344 Q235.4219 187.7344 236.1719 188.5625 Q236.9219 189.375 236.9219 190.6562 Q236.9219 191.9062 236.1719 192.9375 Q235.2656 194.1719 233.7656 194.1719 Q232.75 194.1719 232.0312 193.5 Q230.6406 192.1875 230.6406 190.1094 Q230.6406 188.7656 231.1719 187.5781 Q231.7188 186.375 232.7031 185.4375 Q233.7031 184.5 234.6094 184.1875 Q235.5156 183.8594 236.2969 183.8594 L236.7188 183.8594 ZM232.1719 188.9844 Q232.0312 189.9844 232.0312 190.5938 Q232.0312 191.2969 232.2969 192.125 Q232.5625 192.9375 233.0625 193.4219 Q233.4375 193.7656 233.9844 193.7656 Q234.6094 193.7656 235.1094 193.1719 Q235.625 192.5625 235.625 191.4531 Q235.625 190.2031 235.125 189.2969 Q234.625 188.375 233.7031 188.375 Q233.4219 188.375 233.1094 188.5 Q232.7969 188.6094 232.1719 188.9844 ZM238.0469 189.0938 Q238.0469 187.3906 238.5469 186.1719 Q239.0625 184.9375 239.9219 184.3438 Q240.5781 183.8594 241.2812 183.8594 Q242.4219 183.8594 243.3281 185.0312 Q244.4688 186.4688 244.4688 188.9375 Q244.4688 190.6719 243.9688 191.875 Q243.4688 193.0781 242.6875 193.625 Q241.9219 194.1719 241.2031 194.1719 Q239.7812 194.1719 238.8438 192.5 Q238.0469 191.0781 238.0469 189.0938 ZM239.4844 189.2812 Q239.4844 191.3281 239.9844 192.625 Q240.4062 193.7188 241.2344 193.7188 Q241.625 193.7188 242.0469 193.3594 Q242.4688 193 242.6875 192.1719 Q243.0312 190.9062 243.0312 188.6094 Q243.0312 186.9219 242.6719 185.7812 Q242.4219 184.9375 242 184.5938 Q241.7031 184.3438 241.2656 184.3438 Q240.7812 184.3438 240.3906 184.7969 Q239.8594 185.4062 239.6719 186.7188 Q239.4844 188.0156 239.4844 189.2812 Z"
                  style="stroke:none; clip-path:url(#clipPath4);"/>
        </g>
        <g transform="translate(6,5)"
           style="text-rendering:optimizeLegibility; font-family:'Times New Roman'; color-interpolation:linearRGB; color-rendering:optimizeQuality; image-rendering:optimizeQuality;">
            <path d="M247.9894 131.5869 L242.9894 131.5869"
                  style="fill:none; clip-path:url(#clipPath1);"/>
        </g>
        <g style="text-rendering:optimizeSpeed; font-family:'Times New Roman'; color-interpolation:linearRGB; color-rendering:optimizeQuality; image-rendering:optimizeQuality;">
            <path d="M231.4531 137.8906 L221.5469 137.8906 L221.5469 137.1094 L231.4531 137.1094 L231.4531 137.8906 Z"
                  style="stroke:none; clip-path:url(#clipPath15);"/>
        </g>
        <g style="text-rendering:optimizeLegibility; font-family:'Times New Roman'; color-interpolation:linearRGB; color-rendering:optimizeQuality; image-rendering:optimizeQuality;">
            <path d="M236.9844 138.3438 L236.9844 139.375 L235.6406 139.375 L235.6406 142 L234.4375 142 L234.4375 139.375 L230.2344 139.375 L230.2344 138.4375 L234.8438 131.8594 L235.6406 131.8594 L235.6406 138.3438 L236.9844 138.3438 ZM234.4375 138.3438 L234.4375 133.4062 L230.9531 138.3438 L234.4375 138.3438 ZM238.0469 137.0938 Q238.0469 135.3906 238.5469 134.1719 Q239.0625 132.9375 239.9219 132.3438 Q240.5781 131.8594 241.2812 131.8594 Q242.4219 131.8594 243.3281 133.0312 Q244.4688 134.4688 244.4688 136.9375 Q244.4688 138.6719 243.9688 139.875 Q243.4688 141.0781 242.6875 141.625 Q241.9219 142.1719 241.2031 142.1719 Q239.7812 142.1719 238.8438 140.5 Q238.0469 139.0781 238.0469 137.0938 ZM239.4844 137.2812 Q239.4844 139.3281 239.9844 140.625 Q240.4062 141.7188 241.2344 141.7188 Q241.625 141.7188 242.0469 141.3594 Q242.4688 141 242.6875 140.1719 Q243.0312 138.9062 243.0312 136.6094 Q243.0312 134.9219 242.6719 133.7812 Q242.4219 132.9375 242 132.5938 Q241.7031 132.3438 241.2656 132.3438 Q240.7812 132.3438 240.3906 132.7969 Q239.8594 133.4062 239.6719 134.7188 Q239.4844 136.0156 239.4844 137.2812 Z"
                  style="stroke:none; clip-path:url(#clipPath4);"/>
        </g>
        <g transform="translate(6,5)"
           style="text-rendering:optimizeLegibility; font-family:'Times New Roman'; color-interpolation:linearRGB; color-rendering:optimizeQuality; image-rendering:optimizeQuality;">
            <path d="M247.9894 79.674 L242.9894 79.674"
                  style="fill:none; clip-path:url(#clipPath1);"/>
        </g>
        <g style="text-rendering:optimizeSpeed; font-family:'Times New Roman'; color-interpolation:linearRGB; color-rendering:optimizeQuality; image-rendering:optimizeQuality;">
            <path d="M231.4531 85.8906 L221.5469 85.8906 L221.5469 85.1094 L231.4531 85.1094 L231.4531 85.8906 Z"
                  style="stroke:none; clip-path:url(#clipPath16);"/>
        </g>
        <g style="text-rendering:optimizeLegibility; font-family:'Times New Roman'; color-interpolation:linearRGB; color-rendering:optimizeQuality; image-rendering:optimizeQuality;">
            <path d="M236.875 88.0938 L236.1875 90 L230.3281 90 L230.3281 89.7344 Q232.9062 87.375 233.9531 85.875 Q235.0156 84.375 235.0156 83.1406 Q235.0156 82.2031 234.4375 81.5938 Q233.8594 80.9844 233.0469 80.9844 Q232.3281 80.9844 231.7344 81.4219 Q231.1562 81.8438 230.875 82.6719 L230.6094 82.6719 Q230.7969 81.3125 231.5469 80.5938 Q232.3125 79.8594 233.4375 79.8594 Q234.6562 79.8594 235.4531 80.6406 Q236.2656 81.4219 236.2656 82.4688 Q236.2656 83.2188 235.9219 83.9844 Q235.375 85.1719 234.1562 86.4844 Q232.3438 88.4844 231.875 88.8906 L234.4688 88.8906 Q235.2656 88.8906 235.5781 88.8438 Q235.9062 88.7812 236.1562 88.6094 Q236.4219 88.4219 236.6094 88.0938 L236.875 88.0938 ZM238.0469 85.0938 Q238.0469 83.3906 238.5469 82.1719 Q239.0625 80.9375 239.9219 80.3438 Q240.5781 79.8594 241.2812 79.8594 Q242.4219 79.8594 243.3281 81.0312 Q244.4688 82.4688 244.4688 84.9375 Q244.4688 86.6719 243.9688 87.875 Q243.4688 89.0781 242.6875 89.625 Q241.9219 90.1719 241.2031 90.1719 Q239.7812 90.1719 238.8438 88.5 Q238.0469 87.0781 238.0469 85.0938 ZM239.4844 85.2812 Q239.4844 87.3281 239.9844 88.625 Q240.4062 89.7188 241.2344 89.7188 Q241.625 89.7188 242.0469 89.3594 Q242.4688 89 242.6875 88.1719 Q243.0312 86.9062 243.0312 84.6094 Q243.0312 82.9219 242.6719 81.7812 Q242.4219 80.9375 242 80.5938 Q241.7031 80.3438 241.2656 80.3438 Q240.7812 80.3438 240.3906 80.7969 Q239.8594 81.4062 239.6719 82.7188 Q239.4844 84.0156 239.4844 85.2812 Z"
                  style="stroke:none; clip-path:url(#clipPath4);"/>
        </g>
        <g transform="translate(6,5)"
           style="text-rendering:optimizeLegibility; font-family:'Times New Roman'; color-interpolation:linearRGB; color-rendering:optimizeQuality; image-rendering:optimizeQuality;">
            <path d="M247.9894 27.7612 L242.9894 27.7612"
                  style="fill:none; clip-path:url(#clipPath1);"/>
        </g>
        <g transform="translate(6,5)"
           style="text-rendering:optimizeLegibility; font-family:'Times New Roman'; color-interpolation:linearRGB; color-rendering:optimizeQuality; image-rendering:optimizeQuality;">
            <path d="M247.9894 469.0202 L245.4894 469.0202"
                  style="fill:none; clip-path:url(#clipPath1);"/>
        </g>
        <g transform="translate(6,5)"
           style="text-rendering:optimizeLegibility; font-family:'Times New Roman'; color-interpolation:linearRGB; color-rendering:optimizeQuality; image-rendering:optimizeQuality;">
            <path d="M247.9894 417.1074 L245.4894 417.1074"
                  style="fill:none; clip-path:url(#clipPath1);"/>
        </g>
        <g transform="translate(6,5)"
           style="text-rendering:optimizeLegibility; font-family:'Times New Roman'; color-interpolation:linearRGB; color-rendering:optimizeQuality; image-rendering:optimizeQuality;">
            <path d="M247.9894 365.1946 L245.4894 365.1946"
                  style="fill:none; clip-path:url(#clipPath1);"/>
        </g>
        <g transform="translate(6,5)"
           style="text-rendering:optimizeLegibility; font-family:'Times New Roman'; color-interpolation:linearRGB; color-rendering:optimizeQuality; image-rendering:optimizeQuality;">
            <path d="M247.9894 313.2817 L245.4894 313.2817"
                  style="fill:none; clip-path:url(#clipPath1);"/>
        </g>
        <g transform="translate(6,5)"
           style="text-rendering:optimizeLegibility; font-family:'Times New Roman'; color-interpolation:linearRGB; color-rendering:optimizeQuality; image-rendering:optimizeQuality;">
            <path d="M247.9894 261.369 L245.4894 261.369"
                  style="fill:none; clip-path:url(#clipPath1);"/>
        </g>
        <g transform="translate(6,5)"
           style="text-rendering:optimizeLegibility; font-family:'Times New Roman'; color-interpolation:linearRGB; color-rendering:optimizeQuality; image-rendering:optimizeQuality;">
            <path d="M247.9894 209.4561 L245.4894 209.4561"
                  style="fill:none; clip-path:url(#clipPath1);"/>
        </g>
        <g transform="translate(6,5)"
           style="text-rendering:optimizeLegibility; font-family:'Times New Roman'; color-interpolation:linearRGB; color-rendering:optimizeQuality; image-rendering:optimizeQuality;">
            <path d="M247.9894 157.5433 L245.4894 157.5433"
                  style="fill:none; clip-path:url(#clipPath1);"/>
        </g>
        <g transform="translate(6,5)"
           style="text-rendering:optimizeLegibility; font-family:'Times New Roman'; color-interpolation:linearRGB; color-rendering:optimizeQuality; image-rendering:optimizeQuality;">
            <path d="M247.9894 105.6305 L245.4894 105.6305"
                  style="fill:none; clip-path:url(#clipPath1);"/>
        </g>
        <g transform="translate(6,5)"
           style="text-rendering:optimizeLegibility; font-family:'Times New Roman'; color-interpolation:linearRGB; color-rendering:optimizeQuality; image-rendering:optimizeQuality;">
            <path d="M247.9894 53.7177 L245.4894 53.7177"
                  style="fill:none; clip-path:url(#clipPath1);"/>
        </g>
    </g>
</svg>
